<svg width="72" height="72" viewBox="0 0 72 72" fill="none" xmlns="http://www.w3.org/2000/svg">
<rect width="71.4776" height="71.4776" rx="13.7511" fill="#A23021"/>
<path d="M16.0526 45.7093C12.8466 45.69 10.442 44.8982 8.83904 43.3338C7.25535 41.7694 6.46351 39.2297 6.46351 35.7147C6.46351 32.528 7.23604 30.0269 8.7811 28.2115C10.3262 26.3767 12.5086 25.4593 15.3283 25.4593C17.0665 25.4593 18.5826 25.72 19.8766 26.2415C21.1706 26.763 22.1652 27.5065 22.8605 28.4722C23.5558 29.4379 23.9034 30.5773 23.9034 31.8906C23.9034 32.9336 23.6717 33.8606 23.2081 34.6718C22.7639 35.4829 22.0976 36.2072 21.2092 36.8445C21.9238 36.9604 22.5418 37.3467 23.0633 38.0033C23.6041 38.66 23.8745 39.4228 23.8745 40.2919C23.8745 41.219 23.6234 42.0977 23.1212 42.9282C22.6384 43.7394 21.8079 44.4057 20.6298 44.9271C19.471 45.4486 17.9453 45.7093 16.0526 45.7093ZM14.0536 34.9035C14.4013 35.0773 14.8358 35.1642 15.3573 35.1642C15.9753 35.1642 16.5064 35.0194 16.9506 34.7297C17.4141 34.4207 17.6459 33.9668 17.6459 33.3681C17.6459 32.7887 17.4141 32.3542 16.9506 32.0645C16.5064 31.7554 15.9657 31.6009 15.3283 31.6009C14.8262 31.6009 14.4013 31.6879 14.0536 31.8617C13.7832 31.9776 13.5805 32.1803 13.4453 32.47C13.3101 32.7597 13.2425 33.0688 13.2425 33.3971C13.2425 33.7254 13.3101 34.0344 13.4453 34.3241C13.5805 34.5945 13.7832 34.7876 14.0536 34.9035ZM14.0536 41.6825C14.4206 41.837 14.8551 41.9142 15.3573 41.9142C15.9753 41.9142 16.5064 41.7887 16.9506 41.5376C17.4141 41.2673 17.6459 40.8713 17.6459 40.3499C17.6459 39.8477 17.4141 39.4615 16.9506 39.1911C16.4871 38.9207 15.9463 38.7855 15.3283 38.7855C14.8455 38.7855 14.4206 38.8627 14.0536 39.0173C13.7832 39.1331 13.5805 39.3166 13.4453 39.5677C13.3101 39.7994 13.2425 40.0602 13.2425 40.3499C13.2425 40.6396 13.3101 40.91 13.4453 41.161C13.5805 41.3928 13.7832 41.5666 14.0536 41.6825ZM42.8436 38.1771C42.8436 39.2587 42.4381 40.3402 41.6269 41.4218C42.3994 42.2715 42.7857 43.0827 42.7857 43.8552C42.7857 44.396 42.5926 44.8402 42.2063 45.1879C41.8393 45.5355 41.3469 45.7093 40.7288 45.7093C39.7438 45.7093 38.7685 45.3037 37.8029 44.4926C36.1033 45.3424 34.3651 45.7673 32.5883 45.7673C31.275 45.7673 30.0582 45.5355 28.9381 45.072C27.8179 44.6085 26.9102 43.9228 26.2149 43.0151C25.5389 42.1074 25.2009 41.0258 25.2009 39.7705C25.2009 38.7082 25.4617 37.8005 25.9831 37.0473C26.5239 36.2748 27.3157 35.5505 28.3587 34.8745C27.5668 33.5999 27.1709 32.4411 27.1709 31.3982C27.1709 30.1428 27.4799 29.0709 28.0979 28.1825C28.716 27.2941 29.5078 26.6278 30.4735 26.1836C31.4391 25.72 32.4434 25.4883 33.4863 25.4883C34.4713 25.4883 35.4177 25.6911 36.3254 26.0967C37.2524 26.4829 38.0057 27.0623 38.5851 27.8348C39.1644 28.6074 39.4541 29.5248 39.4541 30.587C39.4541 31.8617 39.1548 32.9239 38.5561 33.7737C37.9574 34.6042 37.1366 35.3574 36.0936 36.0333C36.4992 36.4969 36.9338 36.9604 37.3973 37.4239C37.7449 36.8059 38.1891 36.3424 38.7299 36.0333C39.2707 35.705 39.7825 35.5409 40.2653 35.5409C40.922 35.5409 41.511 35.7919 42.0325 36.2941C42.5732 36.7962 42.8436 37.4239 42.8436 38.1771ZM33.3125 30.2104C33.1194 30.2104 32.9552 30.278 32.82 30.4132C32.6848 30.5291 32.6172 30.7125 32.6172 30.9636C32.6172 31.2919 32.7814 31.7265 33.1097 32.2673C33.4187 32.0162 33.6312 31.7844 33.7471 31.572C33.8629 31.3595 33.9209 31.1278 33.9209 30.8767C33.9209 30.6642 33.8533 30.5001 33.7181 30.3842C33.6022 30.2683 33.467 30.2104 33.3125 30.2104ZM30.966 39.8284C30.966 40.2147 31.1205 40.5237 31.4295 40.7554C31.7385 40.9679 32.1537 41.0741 32.6752 41.0741C33.0421 41.0741 33.4091 41.0162 33.776 40.9003C32.9069 40.0891 32.1537 39.3552 31.5164 38.6986C31.1494 39.0269 30.966 39.4035 30.966 39.8284ZM60.3387 25.5173C61.4203 25.5173 62.2508 25.8939 62.8302 26.6471C63.4289 27.4003 63.8345 28.5012 64.0469 29.9497C64.2593 31.3788 64.3656 33.2812 64.3656 35.6567C64.3656 38.0323 64.2593 39.9346 64.0469 41.3638C63.8345 42.7737 63.4385 43.8456 62.8591 44.5795C62.2797 45.3134 61.4396 45.6803 60.3387 45.6803C59.0254 45.6803 58.0984 45.1203 57.5576 44.0001C57.0169 42.8799 56.6982 41.1417 56.6016 38.7855C56.0029 38.8048 55.0179 38.8145 53.6467 38.8145H52.1402C52.0244 41.1707 51.696 42.9089 51.1553 44.0291C50.6145 45.1492 49.6875 45.7093 48.3742 45.7093C47.2733 45.7093 46.4332 45.3424 45.8538 44.6085C45.2744 43.8745 44.8784 42.8027 44.666 41.3928C44.4729 39.9636 44.3763 38.0516 44.3763 35.6567C44.3763 33.2619 44.4729 31.3499 44.666 29.9207C44.8784 28.4915 45.2744 27.41 45.8538 26.6761C46.4332 25.9228 47.2733 25.5462 48.3742 25.5462C49.3205 25.5462 50.0641 25.8456 50.6048 26.4443C51.1456 27.0237 51.5222 27.8735 51.7347 28.9936C51.9664 30.0945 52.1113 31.5237 52.1692 33.2812H54.2261C55.2883 33.2812 56.0705 33.2909 56.5726 33.3102C56.6306 30.6449 56.9203 28.6846 57.4417 27.4293C57.9825 26.1546 58.9482 25.5173 60.3387 25.5173Z" fill="white"/>
</svg>
